2015032_C4_03_grf
version=1
nRows=21
nColumns=19
inDegrees=no
endheader
time	ground_force_1_vx	ground_force_1_vy	ground_force_1_vz	ground_force_1_px	ground_force_1_py	ground_force_1_pz	ground_force_1_mx	ground_force_1_my	ground_force_1_mz	ground_force_2_vx	ground_force_2_vy	ground_force_2_vz	ground_force_2_px	ground_force_2_py	ground_force_2_pz	ground_force_2_mx	ground_force_2_my	ground_force_2_mz
      0.50700000	      3.30211488	    480.87269068	    -15.20519257	      0.19375223	      0.00000000	     -0.18865780	      0.00000000	      0.39907031	      0.00000000	      0.00000000	      0.00000000	      0.00000000	      0.00000000	      0.00000000	      0.00000000	      0.00000000	      0.00000000	      0.00000000
      0.50800000	      3.44502172	    480.92646897	    -15.31274356	      0.19402759	      0.00000000	     -0.18844402	      0.00000000	      0.39416012	      0.00000000	      0.00000000	      0.00000000	      0.00000000	      0.00000000	      0.00000000	      0.00000000	      0.00000000	      0.00000000	      0.00000000
      0.50900000	      3.58693111	    480.97416759	    -15.42294826	      0.19430506	      0.00000000	     -0.18822935	      0.00000000	      0.38894020	      0.00000000	      0.00000000	      0.00000000	      0.00000000	      0.00000000	      0.00000000	      0.00000000	      0.00000000	      0.00000000	      0.00000000
      0.51000000	      3.72798499	    481.01685941	    -15.53523615	      0.19458424	      0.00000000	     -0.18801400	      0.00000000	      0.38347887	      0.00000000	      0.00000000	      0.00000000	      0.00000000	      0.00000000	      0.00000000	      0.00000000	      0.00000000	      0.00000000	      0.00000000
      0.51100000	      3.86790284	    481.05333745	    -15.65008108	      0.19486560	      0.00000000	     -0.18779784	      0.00000000	      0.37772163	      0.00000000	      0.00000000	      0.00000000	      0.00000000	      0.00000000	      0.00000000	      0.00000000	      0.00000000	      0.00000000	      0.00000000
      0.51200000	      4.00686013	    481.08476400	    -15.76693542	      0.19514871	      0.00000000	     -0.18758106	      0.00000000	      0.37173303	      0.00000000	      0.00000000	      0.00000000	      0.00000000	      0.00000000	      0.00000000	      0.00000000	      0.00000000	      0.00000000	      0.00000000
      0.51300000	      4.14454937	    481.10977560	    -15.88625684	      0.19543400	      0.00000000	     -0.18736358	      0.00000000	      0.36546483	      0.00000000	      0.00000000	      0.00000000	      0.00000000	      0.00000000	      0.00000000	      0.00000000	      0.00000000	      0.00000000	      0.00000000
      0.51400000	      4.28116964	    481.12964630	    -16.00751728	      0.19572104	      0.00000000	     -0.18714557	      0.00000000	      0.35898230	      0.00000000	      0.00000000	      0.00000000	      0.00000000	      0.00000000	      0.00000000	      0.00000000	      0.00000000	      0.00000000	      0.00000000
      0.51500000	      4.41638622	    481.14310205	    -16.13115650	      0.19601024	      0.00000000	     -0.18692697	      0.00000000	      0.35224561	      0.00000000	      0.00000000	      0.00000000	      0.00000000	      0.00000000	      0.00000000	      0.00000000	      0.00000000	      0.00000000	      0.00000000
      0.51600000	      4.55042906	    481.15146160	    -16.25666432	      0.19630114	      0.00000000	     -0.18670794	      0.00000000	      0.34531790	      0.00000000	      0.00000000	      0.00000000	      0.00000000	      0.00000000	      0.00000000	      0.00000000	      0.00000000	      0.00000000	      0.00000000
      0.51700000	      4.68295212	    481.15345091	    -16.38444867	      0.19659415	      0.00000000	     -0.18648845	      0.00000000	      0.33816637	      0.00000000	      0.00000000	      0.00000000	      0.00000000	      0.00000000	      0.00000000	      0.00000000	      0.00000000	      0.00000000	      0.00000000
      0.51800000	      4.81422991	    481.15052283	    -16.51399992	      0.19688882	      0.00000000	     -0.18626864	      0.00000000	      0.33084707	      0.00000000	      0.00000000	      0.00000000	      0.00000000	      0.00000000	      0.00000000	      0.00000000	      0.00000000	      0.00000000	      0.00000000
      0.51900000	      4.94393455	    481.14158213	    -16.64566901	      0.19718550	      0.00000000	     -0.18604851	      0.00000000	      0.32333159	      0.00000000	      0.00000000	      0.00000000	      0.00000000	      0.00000000	      0.00000000	      0.00000000	      0.00000000	      0.00000000	      0.00000000
      0.52000000	      5.07237855	    481.12803698	    -16.77894965	      0.19748377	      0.00000000	     -0.18582818	      0.00000000	      0.31567047	      0.00000000	      0.00000000	      0.00000000	      0.00000000	      0.00000000	      0.00000000	      0.00000000	      0.00000000	      0.00000000	      0.00000000
      0.52100000	      5.19925151	    481.10901564	    -16.91413410	      0.19778395	      0.00000000	     -0.18560769	      0.00000000	      0.30784298	      0.00000000	      0.00000000	      0.00000000	      0.00000000	      0.00000000	      0.00000000	      0.00000000	      0.00000000	      0.00000000	      0.00000000
      0.52200000	      5.32487333	    481.08592629	    -17.05074571	      0.19808561	      0.00000000	     -0.18538715	      0.00000000	      0.29989536	      0.00000000	      0.00000000	      0.00000000	      0.00000000	      0.00000000	      0.00000000	      0.00000000	      0.00000000	      0.00000000	      0.00000000
      0.52300000	      5.44894394	    481.05816543	    -17.18901806	      0.19838904	      0.00000000	     -0.18516664	      0.00000000	      0.29181337	      0.00000000	      0.00000000	      0.00000000	      0.00000000	      0.00000000	      0.00000000	      0.00000000	      0.00000000	      0.00000000	      0.00000000
      0.52400000	      5.57178687	    481.02700710	    -17.32851304	      0.19869382	      0.00000000	     -0.18494622	      0.00000000	      0.28363589	      0.00000000	      0.00000000	      0.00000000	      0.00000000	      0.00000000	      0.00000000	      0.00000000	      0.00000000	      0.00000000	      0.00000000
      0.52500000	      5.69311213	    480.99216074	    -17.46939830	      0.19900020	      0.00000000	     -0.18472605	      0.00000000	      0.27535353	      0.00000000	      0.00000000	      0.00000000	      0.00000000	      0.00000000	      0.00000000	      0.00000000	      0.00000000	      0.00000000	      0.00000000
      0.52600000	      5.81323542	    480.95476627	    -17.61128828	      0.19930777	      0.00000000	     -0.18450615	      0.00000000	      0.26700072	      0.00000000	      0.00000000	      0.00000000	      0.00000000	      0.00000000	      0.00000000	      0.00000000	      0.00000000	      0.00000000	      0.00000000
      0.52700000	      5.93186812	    480.91477901	    -17.75430031	      0.19961675	      0.00000000	     -0.18428673	      0.00000000	      0.25857948	      0.00000000	      0.00000000	      0.00000000	      0.00000000	      0.00000000	      0.00000000	      0.00000000	      0.00000000	      0.00000000	      0.00000000
